<?xml version="1.0" encoding="UTF-8"?>
<svg width="633px" height="161px" viewBox="0 0 633 161" version="1.1" xmlns="http://www.w3.org/2000/svg" xmlns:xlink="http://www.w3.org/1999/xlink">
    <title>wetravel-logo-blue</title>
    <g id="Page-1" stroke="none" stroke-width="1" fill="none" fill-rule="evenodd">
        <g id="Artboard" transform="translate(-912.000000, -802.000000)" fill="#19BED3">
            <g id="logo-main" transform="translate(158.612049, 566.000000)">
                <path d="M1339.11714,394.542868 C1336.13541,394.542868 1333.35804,393.184107 1330.78966,390.471319 C1328.22129,387.758531 1325.98267,385.62807 1324.07845,381.049945 C1323.7394,380.240369 1323.43287,379.378716 1323.12169,378.521797 C1322.07205,379.530215 1321.11994,380.443947 1320.3629,381.182507 C1317.98959,382.896345 1313.97215,386.096771 1311.23657,387.753797 C1308.50564,389.410823 1305.63074,390.883208 1302.62114,392.170954 C1299.61154,393.458699 1296.49048,394.49079 1293.25795,395.257756 C1290.03006,396.029456 1286.75573,396.417674 1283.44425,396.417674 C1278.25177,396.417674 1273.7095,395.44713 1269.81282,393.501309 C1265.92078,391.560222 1262.67432,388.942121 1260.07807,385.651741 C1258.10419,383.147266 1256.5065,380.344525 1255.28501,377.248254 C1251.57875,382.465518 1245.61529,385.860053 1238.88085,385.860053 C1230.62304,385.860053 1223.53098,380.761149 1220.34025,373.446564 C1220.2613,373.295064 1220.1777,373.143565 1220.10338,372.992066 C1219.29525,371.216681 1218.84474,369.370281 1218.71005,367.4576 C1218.68219,367.235085 1218.64503,367.01257 1218.62645,366.790055 C1217.02877,370.198794 1215.21743,373.697485 1213.18781,377.27666 C1211.14426,380.879508 1209.03104,384.136747 1206.84815,387.053112 C1204.66527,389.969477 1202.48703,392.355594 1200.30414,394.211463 C1198.12125,396.072066 1196.06377,397 1194.13168,397 C1190.92702,397 1188.44224,396.157284 1186.67735,394.471852 C1184.90782,392.78642 1183.59345,390.655959 1182.73887,388.080468 C1182.39054,387.034174 1182.10258,385.935803 1181.85643,384.809026 C1180.58385,386.077834 1179.23696,387.313501 1177.81112,388.511294 C1175.15915,390.741177 1172.31675,392.625452 1169.27928,394.173588 C1166.24182,395.712254 1163.19971,396.483955 1160.16225,396.483955 C1156.51637,396.483955 1153.4789,395.271959 1151.04986,392.843233 C1148.62082,390.409772 1146.52153,386.882675 1144.75665,382.247737 C1143.42834,383.852685 1141.79814,385.481305 1139.86605,387.13833 C1137.93396,388.795356 1135.82074,390.300882 1133.52639,391.64544 C1131.23668,392.985264 1128.84944,394.083635 1126.36002,394.945288 C1123.87525,395.797473 1121.39047,396.233034 1118.9057,396.233034 C1116.25372,396.233034 1113.67141,395.674379 1111.15877,394.557071 C1108.64613,393.444496 1106.42144,391.844283 1104.48936,389.756431 C1102.55727,387.668578 1101.01067,385.126228 1099.84956,382.124644 C1098.68845,379.12306 1098.11254,375.733259 1098.11254,371.959975 C1098.11254,371.036775 1098.1497,370.099372 1098.20543,369.166703 C1097.38801,369.649608 1096.57523,370.052029 1095.83212,370.288747 C1093.5935,371.003635 1091.31773,371.358712 1088.99551,371.358712 C1072.01079,371.358712 1062.80087,360.924184 1059.76805,350.432845 C1058.66732,346.62642 1055.43479,346.976763 1055.31403,349.25399 C1055.02608,354.599081 1053.9625,371.069916 1052.41126,378.152517 C1051.64028,381.660677 1050.20979,388.553904 1049.51777,390.012086 C1048.83039,391.470269 1048.12444,392.658593 1047.4092,393.56759 C1046.68931,394.49079 1045.91833,395.129928 1045.08698,395.499208 C1044.26027,395.873223 1043.34996,396.057863 1042.35605,396.057863 C1040.08956,396.057863 1038.2643,395.560755 1036.8849,394.557071 C1035.5055,393.558121 1034.44192,392.213563 1033.69417,390.528131 C1032.95106,388.842699 1032.4541,386.925284 1032.2033,384.780619 C1031.96644,382.721173 1031.85032,380.585977 1031.84104,378.389235 C1027.5728,380.950523 1023.69004,383.246687 1020.23458,385.254055 C1016.09174,387.654375 1012.40406,389.657009 1009.17153,391.257223 C1005.94364,392.857436 1003.06873,394.055229 1000.55609,394.86007 C998.04345,395.660176 995.763031,396.057863 993.724122,396.057863 C989.525549,396.057863 985.82393,394.741711 982.619267,392.109407 C979.414604,389.481838 976.739407,385.699085 974.584387,380.75168 C972.429367,375.804275 970.813102,369.815311 969.735592,362.784788 C968.662727,355.754264 968.123972,347.833682 968.123972,339.032508 C968.123972,335.600098 968.258661,331.945173 968.537327,328.058264 C968.811349,324.166621 969.196837,320.308119 969.693792,316.478022 C968.040372,316.255507 966.753862,316.037727 965.843552,315.834149 C964.933242,315.635306 963.967199,315.436463 962.945422,315.23762 C961.919001,315.034043 960.623202,314.820997 959.048737,314.593747 C957.474272,314.366498 955.198497,314.077702 952.216767,313.736828 C950.888457,313.566391 949.866681,313.234986 949.151437,312.747347 C948.431549,312.264443 947.906727,311.691585 947.576972,311.033509 C947.242573,310.375433 947.052151,309.688951 946.996417,308.974063 C946.940684,308.259175 946.912817,307.643708 946.912817,307.132397 C946.912817,305.986683 947.451572,305.115561 948.529082,304.519031 C949.606592,303.917768 950.985991,303.472738 952.671922,303.188676 C954.357854,302.899881 956.206341,302.748381 958.222027,302.715241 C960.237714,302.686834 962.169801,302.701037 964.022932,302.75785 C965.871419,302.814662 967.529484,302.862006 968.992482,302.885677 C970.45548,302.918818 971.463324,302.871474 972.016012,302.75785 C973.506877,295.040845 983.557444,255.878227 994.718032,247.493677 C998.521828,244.62939 1010.51377,244.544172 1010.04933,253.236455 C1009.54308,262.548939 993.626588,303.084521 994.578699,304.339126 C995.828053,305.981948 1007.80606,305.688418 1008.96717,305.716824 C1010.12828,305.749965 1011.46588,305.78784 1012.98461,305.844652 C1014.50334,305.901464 1016.14747,305.977214 1017.91236,306.062432 C1019.68189,306.147651 1021.39105,306.218666 1023.04911,306.275479 C1024.70718,306.332291 1026.25377,306.393837 1027.68891,306.445915 C1029.12404,306.502728 1030.31301,306.55954 1031.25119,306.616352 C1032.35657,306.677899 1033.16006,307.246022 1033.65701,308.334925 C1034.15397,309.419093 1034.40012,310.787323 1034.40012,312.449083 C1034.40012,314.451717 1033.84743,316.080336 1032.74206,317.339675 C1031.63668,318.594281 1030.42448,319.22395 1029.09617,319.22395 L997.286407,319.22395 C987.240484,319.22395 987.923217,331.912032 987.923217,331.912032 C987.700284,335.458067 987.509862,338.94729 987.342662,342.3797 C987.286929,343.866289 987.231195,345.395487 987.175462,346.96256 C987.119729,348.534367 987.063996,350.091971 987.012907,351.640106 C986.957174,353.183507 986.915374,354.670096 986.887507,356.095138 C986.85964,357.524915 986.845707,358.841066 986.845707,360.043594 C986.845707,363.130396 987.119729,365.734293 987.672417,367.845817 C988.225105,369.957341 989.028593,371.690117 990.078237,373.02994 C991.123236,374.374498 992.409745,375.349776 993.928477,375.95104 C995.447209,376.547569 997.147073,376.850568 999.023427,376.850568 C1000.18454,376.850568 1001.6336,376.566507 1003.37527,375.988915 C1005.11229,375.420792 1007.01651,374.634888 1009.08793,373.631204 C1011.16399,372.632254 1013.34223,371.448664 1015.63659,370.0757 C1017.9263,368.702736 1020.19278,367.201944 1022.42676,365.573325 C1024.66538,363.944705 1026.80646,362.226133 1028.85002,360.427077 C1030.66135,358.831598 1032.29619,357.198244 1033.80563,355.53175 C1034.17254,352.852102 1034.56732,350.144049 1035.02248,347.393386 C1035.65412,343.534884 1036.33221,339.861021 1037.0521,336.371799 C1037.76734,332.88731 1038.48723,329.682149 1039.20712,326.770519 C1039.92236,323.854153 1040.64225,321.453833 1041.36214,319.564824 C1041.80336,318.310219 1042.24458,317.306535 1042.6858,316.563241 C1043.12702,315.824681 1043.63791,315.23762 1044.21847,314.806793 C1044.79902,314.380701 1045.51426,314.091905 1046.37349,313.949874 C1047.22806,313.807844 1048.29164,313.736828 1049.56422,313.736828 C1050.99935,313.736828 1052.11401,313.807844 1052.9175,313.949874 C1053.71634,314.091905 1054.31083,314.437513 1054.69632,314.97723 C1055.08181,315.526416 1055.31868,316.302851 1055.40228,317.339675 C1055.48588,318.367031 1055.52768,319.768402 1055.52768,321.539052 L1055.52768,329.213448 C1055.52768,332.215031 1058.95063,333.242387 1060.33003,330.411241 C1061.70943,327.584828 1063.3164,324.943056 1065.13702,322.481189 C1066.96229,320.024057 1069.03371,317.950408 1071.35128,316.264976 C1073.66886,314.579544 1076.3487,313.736828 1079.38616,313.736828 C1080.4358,313.736828 1081.45758,313.921468 1082.45149,314.290748 C1083.4454,314.664763 1084.31856,315.190277 1085.06167,315.881493 C1085.80942,316.563241 1086.39926,317.405957 1086.84513,318.409641 C1087.28635,319.40859 1087.50464,320.540102 1087.50464,321.794707 C1087.50464,322.769985 1087.36531,324.128746 1087.09129,325.87099 C1086.81726,327.613235 1086.51073,329.445431 1086.18098,331.358112 C1085.85122,333.275528 1085.54469,335.131397 1085.27067,336.930453 C1084.992,338.734244 1084.85731,340.230301 1084.85731,341.432828 C1084.85731,343.492275 1085.04773,345.206113 1085.43322,346.579077 C1085.81871,347.947306 1086.3296,349.050412 1086.96589,349.878925 C1087.60217,350.707438 1088.32206,351.294498 1089.12091,351.640106 C1089.91975,351.98098 1090.76504,352.156152 1091.64748,352.156152 C1094.13226,352.156152 1095.46057,352.075667 1098.11254,350.929953 C1100.75987,349.784238 1103.97382,347.000435 1105.63653,343.525415 C1105.65511,343.501743 1105.66904,343.468603 1105.68762,343.444931 C1107.10418,340.680065 1108.674,338.014621 1110.40173,335.453333 C1110.68039,335.013038 1110.95906,334.59168 1111.24702,334.208197 L1111.24702,334.236603 C1111.46995,333.919401 1111.67895,333.597464 1111.90653,333.284997 C1114.69319,329.459635 1117.74459,326.112443 1121.06072,323.25289 C1124.3722,320.393337 1127.86482,318.120845 1131.53857,316.435413 C1135.21232,314.754715 1138.95574,313.949874 1142.76418,313.907265 C1158.02116,313.736828 1162.09434,321.141366 1162.65167,321.714223 C1163.19971,322.282346 1163.63165,323.082453 1163.93354,324.109809 C1164.23542,325.137165 1164.38869,326.543269 1164.38869,328.31392 C1164.38869,331.059848 1164.11002,334.099306 1163.56198,337.446498 C1163.00929,340.79369 1162.40087,344.216632 1161.73672,347.73426 C1161.07721,351.251889 1160.46878,354.769518 1159.9161,358.287146 C1159.36341,361.804775 1159.08939,365.13303 1159.08939,368.27191 C1159.08939,370.961026 1159.32161,373.063081 1159.7907,374.578076 C1160.25978,376.093071 1161.26763,376.850568 1162.81423,376.850568 C1163.97534,376.850568 1165.18753,376.547569 1166.46011,375.95104 C1167.73269,375.349776 1169.01455,374.563873 1170.31499,373.588595 C1171.61079,372.618051 1172.90659,371.51968 1174.20704,370.288747 C1175.50283,369.062548 1176.73361,367.789005 1177.89472,366.472853 C1178.63319,365.630137 1179.37165,364.749547 1180.11476,363.850018 C1180.01258,361.373949 1179.90576,359.106191 1179.79894,357.084619 C1179.63174,353.912599 1179.47847,351.038843 1179.34379,348.463352 C1179.20445,345.892595 1179.10692,343.520681 1179.05119,341.34761 C1178.99545,339.174539 1178.97223,336.944656 1178.97223,334.662695 C1178.97223,328.773152 1179.23232,324.185559 1179.75714,320.895179 C1180.28196,317.609534 1181.42914,315.824681 1183.19403,315.535885 L1193.13777,313.907265 C1193.41179,313.850453 1193.67652,313.807844 1193.92268,313.774703 C1194.17348,313.751031 1194.43357,313.736828 1194.71223,313.736828 C1196.58859,313.736828 1198.03765,314.309686 1199.05943,315.450666 C1200.08121,316.596381 1200.61996,317.907799 1200.6757,319.394387 L1197.44781,373.678548 L1198.60428,373.588595 L1220.39598,319.825214 C1220.55854,319.020373 1220.92081,318.248672 1221.47349,317.505378 C1222.02154,316.766818 1222.74143,316.122945 1223.62387,315.583228 C1224.50631,315.034043 1225.49093,314.593747 1226.56844,314.248139 C1227.64595,313.907265 1228.78849,313.736828 1230.00533,313.736828 C1233.20535,313.736828 1235.77837,314.409107 1237.71045,315.748931 C1239.64254,317.098223 1240.60858,318.82153 1240.60858,320.937788 C1240.60858,322.538002 1240.40423,324.057731 1239.98623,325.482773 C1239.57287,326.912549 1238.99232,328.470154 1238.24921,330.155585 C1237.50145,331.845751 1236.61901,333.715823 1235.59723,335.775269 C1234.57546,337.829981 1233.45615,340.258707 1232.2393,343.061448 C1231.85382,344.093538 1231.52406,345.1493 1231.25004,346.233468 C1230.97137,347.208746 1230.73451,348.307118 1230.54408,349.538051 C1230.50693,349.770035 1230.493,350.006753 1230.46048,350.243471 C1230.18646,351.261358 1230.02855,352.336057 1230.02855,353.448632 C1230.02855,355.176673 1230.39082,356.814761 1231.03175,358.30135 C1231.37544,359.25769 1231.85846,360.138281 1232.4901,360.943122 C1232.79199,361.326605 1233.14962,361.676948 1233.5351,362.003618 C1235.61117,364.086736 1238.43499,365.379216 1241.55605,365.379216 C1246.30731,365.379216 1250.38049,362.406039 1252.14537,358.159319 C1252.22433,358.069366 1252.29399,357.993616 1252.36831,357.908398 C1252.4937,355.53175 1252.76773,353.065148 1253.2043,350.494392 C1253.80808,346.924685 1254.73697,343.421259 1255.97703,339.988849 C1257.22174,336.561173 1258.78228,333.289731 1260.65863,330.169788 C1262.53498,327.05458 1264.7318,324.313386 1267.24444,321.936738 C1269.75709,319.564824 1272.60413,317.74683 1275.69732,316.279179 C1282.97052,312.832566 1292.31977,314.797325 1294.71166,315.720525 C1297.35899,316.752615 1299.66728,318.196594 1301.62723,320.057198 C1303.58718,321.913066 1305.11985,324.157152 1306.22522,326.784722 C1307.3306,329.412291 1307.88329,332.357062 1307.88329,335.614301 C1307.88329,339.16507 1307.038,342.706371 1305.35671,346.252406 C1303.67078,349.793706 1301.33927,353.140898 1298.3529,356.284513 C1295.37117,359.428127 1291.82282,362.230868 1287.70784,364.688 C1283.59287,367.149867 1279.13421,369.062548 1274.32721,370.435512 C1275.15857,371.974178 1275.97135,373.261924 1276.77019,374.28928 C1277.57368,375.316636 1278.3911,376.126211 1279.21781,376.694334 C1280.04452,377.262457 1280.91767,377.664878 1281.82798,377.892127 C1282.73829,378.119376 1283.71827,378.233001 1284.76791,378.233001 C1288.0794,378.233001 1291.57202,377.551253 1295.24577,376.178289 C1298.91952,374.805325 1302.49574,373.091487 1305.97907,371.032041 C1308.16196,369.739561 1313.97215,364.399204 1318.74199,359.110925 C1318.25432,354.921017 1317.98959,350.612751 1317.98959,346.14825 C1317.98959,341.063548 1321.63083,319.63584 1322.82445,313.741563 C1328.03551,288.010322 1338.62019,262.127581 1341.43472,257.009739 C1344.25389,251.896631 1349.50211,242.233804 1353.50097,239.473673 C1365.20031,231.396857 1375.4413,238.716176 1375.4413,248.047597 C1375.4413,255.636775 1363.89523,283.545821 1357.46732,302.828865 C1349.25595,327.447532 1340.3247,360.928919 1340.1575,362.069899 L1340.1575,363.570691 C1340.1575,365.05728 1340.38972,364.953124 1340.69161,366.354494 C1340.99814,367.755864 1340.92383,367.135663 1341.51832,368.167754 C1342.10816,369.185641 1342.82341,369.957341 1343.41789,370.515996 C1344.05883,371.117259 1345.08989,371.765867 1345.4986,371.950507 C1346.40427,372.357661 1347.70007,372.930519 1349.12591,372.944722 C1350.78398,372.963659 1352.23768,372.797957 1353.75642,372.026256 C1355.27515,371.254556 1355.65599,370.946822 1357.25832,369.947873 C1358.86066,368.944189 1360.40725,367.931036 1361.89812,366.898945 C1364.44327,365.142498 1367.08131,363.182474 1369.8076,361.02834 C1370.46246,360.308718 1372.91008,358.77952 1372.91008,358.77952 C1374.02475,358.287146 1375.25088,358.012554 1376.54204,358.012554 C1381.66021,358.012554 1385.80769,362.301883 1385.80769,367.599631 C1385.80769,377.911065 1353.68675,394.542868 1339.11714,394.542868 L1339.11714,394.542868 Z M1145.94562,333.266059 C1145.36971,328.020389 1141.96998,328.834699 1137.41379,331.201879 C1131.53857,334.25554 1118.00467,351.517013 1117.1919,362.907881 C1116.63456,370.695901 1115.91932,376.230367 1123.37365,377.447097 C1130.52608,378.607015 1137.2373,373.792172 1138.80247,366.581743 L1138.80712,366.586478 C1138.80712,366.586478 1146.62371,339.496476 1145.94562,333.266059 L1145.94562,333.266059 Z M1275.14928,355.806342 C1276.35219,355.541218 1277.61083,355.11986 1278.92521,354.528065 C1281.2753,353.467569 1283.45354,352.108808 1285.47387,350.451782 C1287.48956,348.794757 1289.18478,346.9957 1290.56882,345.049879 C1291.94822,343.108792 1293.13719,340.760549 1293.29975,338.937821 C1293.87566,332.551171 1287.22482,328.062999 1281.82798,331.926236 C1280.26281,333.048279 1275.0889,338.080902 1272.20471,346.03936 C1268.81426,355.366047 1274.20646,356.00992 1275.14928,355.806342 L1275.14928,355.806342 Z M912.534677,376.334523 C913.366032,376.90738 914.234542,377.305067 915.144852,377.53705 C916.059807,377.764299 917.039783,377.877924 918.089427,377.877924 C921.400912,377.877924 925.316174,378.053095 928.567282,375.818478 C932.589366,373.053612 934.25672,369.753764 940.317714,369.753764 C944.841397,369.753764 948.501216,373.55072 948.501216,378.223532 C948.501216,379.970511 947.985683,382.981563 946.912817,384.165153 C944.650975,386.66016 938.952248,390.528131 935.942652,391.815877 C932.92841,393.098888 929.811992,394.126244 926.579462,394.902679 C923.346932,395.674379 920.077247,396.057863 916.761117,396.057863 C911.568634,396.057863 907.026372,395.087319 903.134332,393.146232 C899.237647,391.20041 894.235586,387.261424 891.829767,383.819545 C884.110708,372.793222 884.895619,365.549653 884.895619,365.549653 C870.330657,372.405005 860.312601,362.292414 857.335515,353.817912 C855.454518,358.391302 846.342128,373.721157 844.298574,377.522847 C842.255021,381.324537 840.155734,384.591245 838.000714,387.337173 C835.850339,390.083102 833.667453,392.227766 831.456699,393.775902 C829.245946,395.314568 827.039838,396.086269 824.829084,396.086269 C824.053463,396.086269 823.380019,395.475536 822.799464,394.239869 C822.218909,393.01367 821.735888,391.356644 821.350399,389.268792 C820.964911,387.180939 820.644445,384.756948 820.398289,381.977879 C820.14749,379.208279 819.957068,376.277711 819.817734,373.190909 C819.678401,370.104107 819.580868,366.932086 819.529779,363.674847 C819.474046,360.412874 819.446179,357.240853 819.446179,354.154051 L817.04036,353.723224 C815.438028,359.958375 813.547741,365.658543 811.369499,370.833198 C809.186613,376.007852 806.85046,380.467618 804.365685,384.207762 C801.88091,387.957374 799.312535,390.869005 796.66056,392.956857 C794.008585,395.04471 791.412343,396.086269 788.871835,396.086269 C784.56644,396.086269 781.403576,392.795889 779.38789,386.224599 C777.516181,380.12201 776.545493,361.639073 776.410804,350.115643 C771.571298,351.938371 770.326589,351.962043 764.307395,352.094605 C752.306164,352.364463 749.965366,336.509095 762.849041,334.799991 C774.636628,333.237653 777.813425,327.674781 783.335663,319.356512 C784.292418,317.917267 784.766151,316.79049 786.51246,315.218683 C788.86719,313.102424 801.783376,314.115577 801.300355,319.337575 L795.504094,365.729559 L796.57696,365.64434 C799.010646,359.81161 801.119221,354.485456 802.91662,349.646941 C804.709373,344.822629 806.367438,340.490691 807.88617,336.660595 C809.404901,332.830498 810.8679,329.488041 812.279809,326.623753 C812.279809,326.623753 814.253696,322.017222 816.08825,318.532734 C819.919912,311.270227 838.242225,313.765234 837.424804,319.337575 L830.629989,365.729559 L831.791099,365.64434 L851.571766,319.280763 C855.593851,311.895163 874.306297,313.893062 874.287719,320.966194 C874.287719,322.566408 874.027631,324.28498 873.502809,326.112443 C872.977987,327.94464 872.411366,329.644275 871.802944,331.216082 C871.194523,332.787889 867.669393,338.786322 867.669393,338.786322 C867.669393,351.124061 878.983247,351.190342 885.341485,348.998334 C885.341485,348.998334 887.129594,338.658494 893.250965,329.729493 C895.308452,326.737378 898.048671,323.958309 900.565957,321.581661 C903.078599,319.209747 905.920996,317.391753 909.014192,315.919368 C916.287384,312.472754 925.641285,314.437513 928.028527,315.365448 C930.680502,316.392804 932.984144,317.836783 934.948742,319.697386 C936.908695,321.553255 938.44136,323.797341 939.546737,326.42491 C940.647469,329.057214 941.200157,331.997251 941.200157,335.259224 C941.200157,338.805259 940.359513,342.351294 938.673582,345.892595 C936.98765,349.43863 934.656142,352.781087 931.674412,355.924701 C928.692682,359.068316 925.14433,361.875791 921.029357,364.328189 C916.914384,366.790055 912.455722,368.702736 907.648727,370.0757 C908.475437,371.619101 909.292859,372.906847 910.091702,373.934203 C910.890546,374.961559 911.707967,375.7664 912.534677,376.334523 L912.534677,376.334523 Z M908.470793,355.446531 C909.673703,355.186141 910.932346,354.760049 912.246722,354.168254 C914.592164,353.107758 916.77505,351.753731 918.790737,350.091971 C920.806424,348.434945 922.506289,346.635889 923.885687,344.694802 C925.265086,342.74898 926.454062,340.400738 926.621262,338.57801 C927.197172,332.196094 920.541691,327.703187 915.144852,331.571159 C913.579676,332.693202 908.410415,337.721091 905.521574,345.679548 C902.135778,355.01097 907.527972,355.650109 908.470793,355.446531 L908.470793,355.446531 Z" id="wetravel-logo-blue"></path>
            </g>
        </g>
    </g>
</svg>